<svg width="16" height="17" viewBox="0 0 16 17" fill="none" xmlns="http://www.w3.org/2000/svg">
<path d="M13.2225 4.05557H11.5003C11.3714 3.42857 11.0302 2.8652 10.5344 2.46041C10.0385 2.05562 9.41822 1.83415 8.7781 1.83334L7.66699 1.83334C7.02688 1.83415 6.40661 2.05562 5.91074 2.46041C5.41487 2.8652 5.07371 3.42857 4.94477 4.05557H3.22255C3.07521 4.05557 2.9339 4.1141 2.82971 4.21828C2.72552 4.32247 2.66699 4.46378 2.66699 4.61112C2.66699 4.75846 2.72552 4.89977 2.82971 5.00396C2.9339 5.10815 3.07521 5.16668 3.22255 5.16668H3.7781V12.3889C3.77899 13.1253 4.07193 13.8314 4.59267 14.3521C5.11341 14.8729 5.81944 15.1658 6.55588 15.1667H9.88921C10.6257 15.1658 11.3317 14.8729 11.8524 14.3521C12.3732 13.8314 12.6661 13.1253 12.667 12.3889V5.16668H13.2225C13.3699 5.16668 13.5112 5.10815 13.6154 5.00396C13.7196 4.89977 13.7781 4.75846 13.7781 4.61112C13.7781 4.46378 13.7196 4.32247 13.6154 4.21828C13.5112 4.1141 13.3699 4.05557 13.2225 4.05557ZM7.66699 2.94445H8.7781C9.1227 2.94488 9.45873 3.05189 9.74011 3.25081C10.0215 3.44974 10.2344 3.73084 10.3498 4.05557H6.09532C6.21065 3.73084 6.4236 3.44974 6.70498 3.25081C6.98637 3.05189 7.3224 2.94488 7.66699 2.94445ZM11.5559 12.3889C11.5559 12.8309 11.3803 13.2549 11.0677 13.5674C10.7552 13.88 10.3312 14.0556 9.88921 14.0556H6.55588C6.11385 14.0556 5.68993 13.88 5.37737 13.5674C5.06481 13.2549 4.88921 12.8309 4.88921 12.3889V5.16668H11.5559V12.3889Z" fill="#A3A3AD"/>
<path d="M7.11122 11.8333C7.25856 11.8333 7.39987 11.7748 7.50405 11.6706C7.60824 11.5664 7.66677 11.4251 7.66677 11.2778V7.94447C7.66677 7.79713 7.60824 7.65582 7.50405 7.55163C7.39987 7.44745 7.25856 7.38892 7.11122 7.38892C6.96388 7.38892 6.82257 7.44745 6.71838 7.55163C6.6142 7.65582 6.55566 7.79713 6.55566 7.94447V11.2778C6.55566 11.4251 6.6142 11.5664 6.71838 11.6706C6.82257 11.7748 6.96388 11.8333 7.11122 11.8333Z" fill="#A3A3AD"/>
<path d="M9.33388 11.8333C9.48122 11.8333 9.62253 11.7748 9.72672 11.6706C9.83091 11.5664 9.88944 11.4251 9.88944 11.2778V7.94447C9.88944 7.79713 9.83091 7.65582 9.72672 7.55163C9.62253 7.44745 9.48122 7.38892 9.33388 7.38892C9.18654 7.38892 9.04523 7.44745 8.94104 7.55163C8.83685 7.65582 8.77832 7.79713 8.77832 7.94447V11.2778C8.77832 11.4251 8.83685 11.5664 8.94104 11.6706C9.04523 11.7748 9.18654 11.8333 9.33388 11.8333Z" fill="#A3A3AD"/>
</svg>
