<svg width="14" height="15" viewBox="0 0 14 15" fill="none" xmlns="http://www.w3.org/2000/svg">
<path d="M10.698 1.35003L3.92467 8.12335C3.66597 8.38065 3.46088 8.68672 3.32127 9.02382C3.18166 9.36092 3.11031 9.72237 3.11134 10.0872V10.8333C3.11134 10.9807 3.16987 11.122 3.27406 11.2262C3.37824 11.3304 3.51955 11.3889 3.66689 11.3889H4.413C4.77787 11.3899 5.13932 11.3186 5.47642 11.179C5.81353 11.0394 6.11959 10.8343 6.37689 10.5756L13.1502 3.80225C13.4749 3.47678 13.6572 3.03584 13.6572 2.57614C13.6572 2.11643 13.4749 1.67549 13.1502 1.35003C12.82 1.03441 12.3809 0.858276 11.9241 0.858276C11.4674 0.858276 11.0282 1.03441 10.698 1.35003ZM12.3647 3.01669L5.59134 9.79002C5.27807 10.1014 4.85467 10.2766 4.413 10.2778H4.22245V10.0872C4.22361 9.64557 4.39888 9.22217 4.71023 8.90891L11.4836 2.13558C11.6022 2.02222 11.76 1.95897 11.9241 1.95897C12.0882 1.95897 12.246 2.02222 12.3647 2.13558C12.4813 2.25253 12.5468 2.41096 12.5468 2.57614C12.5468 2.74131 12.4813 2.89974 12.3647 3.01669Z" fill="#A3A3AD"/>
<path d="M13.1108 5.82167C12.9634 5.82167 12.8221 5.8802 12.7179 5.98439C12.6138 6.08858 12.5552 6.22989 12.5552 6.37723V9.16667H10.333C9.89097 9.16667 9.46705 9.34226 9.15449 9.65483C8.84193 9.96739 8.66633 10.3913 8.66633 10.8333V13.0556H3.11078C2.66876 13.0556 2.24483 12.88 1.93227 12.5674C1.61971 12.2548 1.44412 11.8309 1.44412 11.3889V3.61112C1.44412 3.16909 1.61971 2.74517 1.93227 2.43261C2.24483 2.12005 2.66876 1.94445 3.11078 1.94445H8.13411C8.28146 1.94445 8.42276 1.88592 8.52695 1.78174C8.63114 1.67755 8.68967 1.53624 8.68967 1.3889C8.68967 1.24156 8.63114 1.10025 8.52695 0.996062C8.42276 0.891875 8.28146 0.833344 8.13411 0.833344H3.11078C2.37434 0.834226 1.66832 1.12717 1.14757 1.64791C0.626831 2.16865 0.33389 2.87468 0.333008 3.61112L0.333008 11.3889C0.33389 12.1253 0.626831 12.8314 1.14757 13.3521C1.66832 13.8728 2.37434 14.1658 3.11078 14.1667H9.41245C9.7774 14.1677 10.1389 14.0964 10.4761 13.9568C10.8133 13.8171 11.1195 13.612 11.3769 13.3533L12.8524 11.8767C13.1112 11.6194 13.3164 11.3133 13.4561 10.9762C13.5958 10.6391 13.6672 10.2777 13.6663 9.91278V6.37723C13.6663 6.22989 13.6078 6.08858 13.5036 5.98439C13.3994 5.8802 13.2581 5.82167 13.1108 5.82167ZM10.5913 12.5678C10.368 12.7906 10.0856 12.9448 9.77744 13.0122V10.8333C9.77744 10.686 9.83598 10.5447 9.94016 10.4405C10.0443 10.3363 10.1857 10.2778 10.333 10.2778H12.5136C12.4448 10.5853 12.2908 10.8672 12.0691 11.0911L10.5913 12.5678Z" fill="#A3A3AD"/>
</svg>
