<svg width="14" height="14" viewBox="0 0 14 14" fill="none" xmlns="http://www.w3.org/2000/svg">
<path d="M13.5105 12.7259L10.1971 9.41255C11.1001 8.30823 11.544 6.89911 11.4371 5.47665C11.3303 4.05419 10.6807 2.72722 9.62293 1.77023C8.56511 0.81323 7.17994 0.29942 5.75391 0.335075C4.32789 0.37073 2.97013 0.953122 1.96146 1.96179C0.952794 2.97045 0.370402 4.32822 0.334747 5.75424C0.299092 7.18027 0.812902 8.56544 1.7699 9.62326C2.7269 10.6811 4.05386 11.3306 5.47632 11.4375C6.89878 11.5443 8.3079 11.1004 9.41222 10.1975L12.7256 13.5108C12.8303 13.612 12.9705 13.6679 13.1161 13.6666C13.2616 13.6654 13.4008 13.607 13.5038 13.5041C13.6067 13.4012 13.6651 13.2619 13.6663 13.1164C13.6676 12.9708 13.6116 12.8306 13.5105 12.7259ZM5.90177 10.3429C5.02346 10.3429 4.16488 10.0824 3.4346 9.59449C2.70431 9.10652 2.13512 8.41297 1.79901 7.60152C1.4629 6.79007 1.37495 5.89717 1.5463 5.03574C1.71765 4.17431 2.1406 3.38304 2.76165 2.76198C3.38271 2.14093 4.17398 1.71798 5.03541 1.54663C5.89684 1.37528 6.78974 1.46322 7.60119 1.79934C8.41264 2.13545 9.1062 2.70464 9.59416 3.43492C10.0821 4.16521 10.3426 5.02379 10.3426 5.9021C10.3412 7.07946 9.87295 8.20823 9.04043 9.04076C8.2079 9.87328 7.07914 10.3416 5.90177 10.3429Z" fill="white" fill-opacity="0.4"/>
</svg>
