<?xml version="1.0" encoding="UTF-8"?>
<!DOCTYPE svg PUBLIC "-//W3C//DTD SVG 1.1//EN" "http://www.w3.org/Graphics/SVG/1.1/DTD/svg11.dtd">
<!-- Creator: CorelDRAW 2020 (64-Bit) -->
<svg xmlns="http://www.w3.org/2000/svg" xml:space="preserve" width="46.0941mm" height="24.26mm" version="1.1" style="shape-rendering:geometricPrecision; text-rendering:geometricPrecision; image-rendering:optimizeQuality; fill-rule:evenodd; clip-rule:evenodd"
viewBox="0 0 203.85 107.29"
 xmlns:xlink="http://www.w3.org/1999/xlink"
 xmlns:xodm="http://www.corel.com/coreldraw/odm/2003">
 <defs>
  <style type="text/css">
   <![CDATA[
    .fil0 {fill:#2086CB}
   ]]>
  </style>
 </defs>
 <g id="Слой_x0020_1">
  <metadata id="CorelCorpID_0Corel-Layer"/>
  <path class="fil0" d="M53.65 107.29c-29.63,0 -53.65,-24.02 -53.65,-53.65 0,-29.63 24.02,-53.65 53.65,-53.65l96.56 0c29.63,0 53.65,24.02 53.65,53.65 0,29.63 -24.02,53.65 -53.65,53.65l-96.56 0zm0 -96.56c23.7,0 42.92,19.21 42.92,42.92 0,1.82 -0.11,3.61 -0.33,5.36l-10.84 0 -17.93 0 -45.55 0c2.55,15.22 15.79,26.82 31.74,26.82 8.89,0 16.93,-3.6 22.76,-9.43l7.59 7.59c-7.77,7.77 -18.5,12.57 -30.35,12.57 -23.7,0 -42.92,-19.21 -42.92,-42.92 0,-23.7 19.21,-42.92 42.92,-42.92zm-31.74 37.55l63.48 0c-2.55,-15.22 -15.79,-26.82 -31.74,-26.82 -15.95,0 -29.19,11.6 -31.74,26.82zm97.96 -24.98c16.76,-16.76 43.93,-16.76 60.69,0 1.28,1.28 2.47,2.63 3.56,4.03l-7.67 7.67 -12.68 12.68 -32.21 32.21c12.57,8.96 30.13,7.8 41.41,-3.48 6.28,-6.28 9.43,-14.52 9.42,-22.76l10.73 0c0,10.98 -4.19,21.97 -12.57,30.35 -16.76,16.76 -43.93,16.76 -60.69,0 -16.76,-16.76 -16.76,-43.93 0,-60.69zm4.11 49l44.89 -44.89c-12.57,-8.96 -30.13,-7.8 -41.41,3.48 -11.28,11.28 -12.43,28.84 -3.48,41.41z"/>
 </g>
</svg>
